<?xml version="1.0" encoding="UTF-8"?>
<svg xmlns="http://www.w3.org/2000/svg" xmlns:xlink="http://www.w3.org/1999/xlink" width="375pt" height="374.999991pt" viewBox="0 0 375 374.999991" version="1.2">
<defs>
<clipPath id="clip1">
  <path d="M 25.269531 102 L 156 102 L 156 244 L 25.269531 244 Z M 25.269531 102 "/>
</clipPath>
<clipPath id="clip2">
  <path d="M 64 288 L 73 288 L 73 296.347656 L 64 296.347656 Z M 64 288 "/>
</clipPath>
</defs>
<g id="surface1">
<path style=" stroke:none;fill-rule:nonzero;fill:rgb(6.669617%,66.668701%,65.098572%);fill-opacity:1;" d="M 47.5 62.324219 C 48.03125 61.769531 48.507812 61.21875 49.023438 60.683594 C 51.078125 58.894531 52.410156 56.878906 54.503906 55.261719 C 51.476562 110.921875 85.933594 179.886719 146.027344 230.882812 C 151.410156 235.773438 156.992188 240.425781 162.769531 244.839844 C 168.550781 249.253906 174.507812 253.414062 180.644531 257.316406 C 186.78125 261.222656 193.074219 264.855469 199.519531 268.222656 C 205.964844 271.589844 212.546875 274.675781 219.257812 277.476562 C 225.964844 280.28125 232.785156 282.792969 239.710938 285.011719 C 246.636719 287.234375 253.644531 289.152344 260.734375 290.773438 C 267.824219 292.394531 274.96875 293.710938 282.171875 294.71875 C 289.375 295.730469 296.605469 296.429688 303.871094 296.820312 C 315.59375 296.828125 327.136719 295.375 338.496094 292.460938 C 335.019531 295.769531 331.394531 298.898438 327.613281 301.847656 C 323.832031 304.796875 319.914062 307.554688 315.859375 310.121094 C 311.808594 312.6875 307.640625 315.046875 303.355469 317.203125 C 299.070312 319.359375 294.691406 321.300781 290.214844 323.023438 C 285.742188 324.75 281.191406 326.253906 276.570312 327.53125 C 271.945312 328.808594 267.269531 329.855469 262.546875 330.675781 C 257.820312 331.496094 253.066406 332.078125 248.28125 332.429688 C 243.496094 332.78125 238.707031 332.898438 233.914062 332.777344 C 227.925781 332.695312 221.953125 332.351562 215.996094 331.742188 C 210.039062 331.132812 204.117188 330.265625 198.238281 329.132812 C 192.355469 328 186.535156 326.613281 180.777344 324.96875 C 175.019531 323.324219 169.34375 321.429688 163.753906 319.285156 C 158.160156 317.140625 152.675781 314.753906 147.292969 312.125 C 141.914062 309.496094 136.660156 306.636719 131.53125 303.542969 C 126.402344 300.449219 121.417969 297.136719 116.582031 293.605469 C 111.746094 290.074219 107.074219 286.335938 102.570312 282.390625 C 33.527344 223.515625 10 129.402344 47.5 62.324219 Z M 200.847656 1.410156 C 202.867188 1.578125 204.902344 1.65625 206.75 1.867188 C 218.640625 3.097656 230.292969 5.5 241.699219 9.078125 C 245.28125 10.195312 248.824219 11.421875 252.332031 12.75 C 255.839844 14.078125 259.304688 15.511719 262.722656 17.050781 C 266.144531 18.589844 269.515625 20.230469 272.839844 21.96875 C 276.160156 23.710938 279.429688 25.550781 282.640625 27.484375 C 285.855469 29.421875 289.003906 31.453125 292.09375 33.582031 C 295.183594 35.707031 298.207031 37.925781 301.164062 40.234375 C 304.121094 42.542969 307.003906 44.9375 309.820312 47.417969 C 312.632812 49.898438 315.367188 52.460938 318.027344 55.109375 C 320.683594 57.753906 323.261719 60.476562 325.757812 63.277344 C 328.25 66.078125 330.660156 68.953125 332.980469 71.898438 C 335.304688 74.84375 337.535156 77.855469 339.675781 80.9375 C 341.820312 84.015625 343.867188 87.15625 345.816406 90.359375 C 347.769531 93.5625 349.625 96.820312 351.382812 100.132812 C 353.136719 103.449219 354.792969 106.8125 356.347656 110.226562 C 357.902344 113.640625 359.355469 117.097656 360.699219 120.597656 C 362.046875 124.097656 363.289062 127.636719 364.421875 131.210938 C 364.535156 131.628906 364.6875 132.03125 364.820312 132.46875 C 366.808594 138.0625 368.363281 143.773438 369.484375 149.601562 L 369.484375 150.570312 C 336.589844 128.921875 305.25 105.21875 275.46875 79.453125 C 246.175781 54.925781 218.429688 28.757812 192.226562 0.953125 C 195.386719 0.953125 198.546875 1.160156 200.847656 1.390625 Z M 74.890625 37.574219 C 74.890625 37.308594 74.890625 37.023438 75.289062 37.003906 C 75.570312 36.914062 75.816406 36.765625 76.035156 36.566406 C 77.269531 35.671875 78.527344 34.875 79.839844 33.996094 C 83.210938 31.484375 87.453125 29.085938 91.089844 26.476562 C 92.519531 25.640625 93.925781 25.242188 95.375 24.441406 C 98.675781 22.445312 102.109375 20.707031 105.671875 19.226562 C 119.929688 60.113281 159.238281 110.824219 210.917969 154.910156 C 264.960938 200.785156 322.980469 231.414062 366.097656 237.828125 C 365.488281 239.542969 364.933594 241.636719 364.191406 243.40625 C 362.898438 247.214844 361.679688 250.71875 360.691406 254.332031 C 359.035156 258.140625 357.4375 262.082031 355.457031 265.90625 C 355.226562 266.34375 354.941406 266.800781 354.714844 267.277344 C 350.832031 269.390625 346.824219 271.242188 342.699219 272.828125 C 338.574219 274.414062 334.359375 275.726562 330.0625 276.757812 C 325.761719 277.792969 321.414062 278.539062 317.019531 279.003906 C 312.621094 279.464844 308.214844 279.636719 303.792969 279.519531 C 297.058594 279.113281 290.355469 278.421875 283.679688 277.449219 C 277.007812 276.476562 270.382812 275.226562 263.816406 273.695312 C 257.246094 272.164062 250.753906 270.359375 244.335938 268.28125 C 237.917969 266.199219 231.601562 263.855469 225.382812 261.242188 C 219.164062 258.628906 213.066406 255.757812 207.089844 252.632812 C 201.113281 249.503906 195.28125 246.128906 189.589844 242.511719 C 183.898438 238.890625 178.367188 235.035156 173 230.949219 C 167.636719 226.863281 162.449219 222.558594 157.449219 218.03125 C 93.773438 164.066406 59.910156 90.417969 74.890625 37.613281 Z M 373.234375 187.824219 C 373.152344 195.195312 372.578125 202.53125 371.523438 209.828125 C 371.292969 211.484375 371.066406 212.742188 370.816406 214.417969 C 370.589844 215.617188 370.285156 217.195312 370.035156 218.792969 C 369.765625 219.574219 369.582031 220.375 369.484375 221.191406 C 330.746094 215.84375 273.640625 185.539062 222.246094 141.796875 C 171.78125 99.042969 133.9375 50.425781 121.355469 12.695312 C 123.492188 11.488281 125.75 10.59375 128.132812 10.011719 C 128.800781 10.011719 129.3125 9.765625 129.3125 9.554688 C 134.484375 7.765625 139.75 6.332031 145.113281 5.253906 L 147.53125 4.683594 L 149.242188 4.359375 C 154.023438 3.214844 158.863281 2.484375 163.769531 2.171875 L 164.664062 2.054688 C 165.957031 1.921875 167.269531 1.714844 168.011719 1.578125 C 168.449219 1.578125 169.191406 1.578125 169.917969 1.464844 C 199.203125 33.898438 230.558594 64.183594 263.988281 92.324219 C 298.078125 121.917969 334.207031 148.765625 372.378906 172.863281 C 372.816406 177.542969 373.234375 182.683594 373.234375 187.878906 Z M 53.570312 320.101562 C 49.238281 315.765625 45.132812 311.230469 41.246094 306.496094 C 37.359375 301.757812 33.710938 296.84375 30.308594 291.75 C 26.902344 286.652344 23.757812 281.40625 20.867188 276.003906 C 17.976562 270.597656 15.359375 265.066406 13.011719 259.40625 C 10.664062 253.75 8.597656 247.988281 6.816406 242.125 C 5.035156 236.261719 3.542969 230.328125 2.34375 224.320312 C 1.140625 218.308594 0.238281 212.257812 -0.367188 206.160156 C -0.976562 200.0625 -1.28125 193.949219 -1.289062 187.824219 C -1.167969 175.640625 0.09375 163.578125 2.492188 151.632812 C 4.886719 139.6875 8.382812 128.070312 12.96875 116.78125 C 12.703125 121 12.5625 125.222656 12.550781 129.445312 C 12.535156 133.671875 12.644531 137.894531 12.882812 142.113281 C 13.121094 146.332031 13.480469 150.539062 13.96875 154.738281 C 14.453125 158.933594 15.066406 163.113281 15.800781 167.273438 C 16.535156 171.4375 17.394531 175.570312 18.375 179.683594 C 19.359375 183.792969 20.460938 187.867188 21.683594 191.914062 C 22.90625 195.957031 24.25 199.960938 25.710938 203.925781 C 27.171875 207.890625 28.753906 211.808594 30.445312 215.679688 C 32.140625 219.550781 33.949219 223.367188 35.871094 227.132812 C 37.792969 230.894531 39.824219 234.597656 41.964844 238.238281 C 44.109375 241.882812 46.355469 245.457031 48.710938 248.964844 C 51.066406 252.476562 53.523438 255.910156 56.082031 259.273438 C 58.640625 262.636719 61.296875 265.917969 64.050781 269.125 C 66.804688 272.328125 69.652344 275.449219 72.589844 278.484375 C 75.53125 281.519531 78.558594 284.464844 81.671875 287.320312 C 84.785156 290.175781 87.984375 292.9375 91.261719 295.601562 C 96.171875 299.867188 101.261719 303.90625 106.527344 307.722656 C 111.792969 311.539062 117.214844 315.121094 122.792969 318.460938 C 128.371094 321.804688 134.085938 324.898438 139.9375 327.738281 C 145.785156 330.582031 151.75 333.160156 157.824219 335.480469 C 163.898438 337.800781 170.066406 339.847656 176.320312 341.628906 C 182.578125 343.40625 188.898438 344.910156 195.285156 346.136719 C 201.671875 347.359375 208.101562 348.304688 214.570312 348.964844 C 221.039062 349.628906 227.527344 350.007812 234.027344 350.101562 C 244.570312 350.113281 255.035156 349.203125 265.417969 347.363281 C 275.800781 345.523438 285.9375 342.789062 295.835938 339.15625 C 287.910156 344.914062 279.582031 350.015625 270.851562 354.457031 C 262.121094 358.898438 253.09375 362.625 243.773438 365.640625 C 234.449219 368.65625 224.949219 370.917969 215.273438 372.429688 C 205.59375 373.941406 195.855469 374.683594 186.058594 374.65625 C 179.929688 374.652344 173.816406 374.351562 167.714844 373.75 C 161.617188 373.148438 155.5625 372.253906 149.550781 371.0625 C 143.539062 369.871094 137.597656 368.390625 131.730469 366.617188 C 125.863281 364.847656 120.09375 362.796875 114.429688 360.460938 C 108.761719 358.128906 103.21875 355.523438 97.808594 352.648438 C 92.394531 349.777344 87.132812 346.644531 82.027344 343.257812 C 76.917969 339.871094 71.988281 336.242188 67.234375 332.375 C 62.480469 328.503906 57.925781 324.414062 53.570312 320.101562 Z M 53.570312 320.101562 "/>
<path style=" stroke:none;fill-rule:nonzero;fill:rgb(100%,35.688782%,0%);fill-opacity:1;" d="M 339.507812 167.167969 L 281.519531 109.152344 C 279.945312 107.578125 277.8125 106.695312 275.589844 106.695312 L 228.160156 106.695312 C 224.773438 106.695312 221.714844 108.738281 220.417969 111.871094 C 219.121094 115.007812 219.839844 118.613281 222.234375 121.015625 L 274.296875 173.097656 L 222.234375 225.183594 C 219.835938 227.582031 219.121094 231.183594 220.417969 234.320312 C 221.714844 237.453125 224.773438 239.5 228.160156 239.5 L 275.589844 239.5 C 277.8125 239.5 279.945312 238.617188 281.519531 237.039062 L 339.507812 179.027344 C 341.078125 177.453125 341.960938 175.324219 341.960938 173.097656 C 341.960938 170.871094 341.078125 168.738281 339.507812 167.167969 Z M 339.507812 167.167969 "/>
<path style=" stroke:none;fill-rule:nonzero;fill:rgb(100%,59.21936%,0%);fill-opacity:1;" d="M 295.953125 179.027344 C 297.523438 177.453125 298.410156 175.324219 298.410156 173.097656 C 298.410156 170.871094 297.523438 168.738281 295.953125 167.167969 L 237.964844 109.152344 C 236.390625 107.578125 234.257812 106.695312 232.035156 106.695312 L 228.160156 106.695312 C 224.773438 106.695312 221.714844 108.738281 220.417969 111.871094 C 219.121094 115.007812 219.839844 118.613281 222.234375 121.015625 L 274.296875 173.097656 L 222.234375 225.183594 C 219.835938 227.582031 219.121094 231.183594 220.417969 234.320312 C 221.714844 237.453125 224.773438 239.5 228.160156 239.5 L 232.035156 239.5 C 234.257812 239.5 236.390625 238.617188 237.964844 237.039062 Z M 295.953125 179.027344 "/>
<path style=" stroke:none;fill-rule:nonzero;fill:rgb(100%,35.688782%,0%);fill-opacity:1;" d="M 151.242188 111.871094 C 149.945312 108.738281 146.886719 106.695312 143.5 106.695312 L 96.074219 106.695312 C 93.847656 106.695312 91.71875 107.578125 90.140625 109.152344 L 32.152344 167.167969 C 30.582031 168.738281 29.699219 170.871094 29.699219 173.097656 C 29.699219 175.324219 30.582031 177.453125 32.152344 179.027344 L 90.140625 237.039062 C 91.71875 238.617188 93.847656 239.5 96.074219 239.5 L 143.5 239.5 C 146.886719 239.5 149.945312 237.453125 151.242188 234.320312 C 152.539062 231.183594 151.824219 227.582031 149.429688 225.183594 L 97.367188 173.097656 L 149.429688 121.015625 C 151.824219 118.613281 152.542969 115.007812 151.242188 111.871094 Z M 151.242188 111.871094 "/>
<path style=" stroke:none;fill-rule:nonzero;fill:rgb(100%,59.21936%,0%);fill-opacity:1;" d="M 151.242188 234.320312 C 152.539062 231.183594 151.824219 227.582031 149.429688 225.183594 L 97.367188 173.097656 L 149.429688 121.015625 C 151.824219 118.613281 152.542969 115.007812 151.242188 111.871094 C 149.945312 108.738281 146.886719 106.695312 143.5 106.695312 L 139.628906 106.695312 C 137.402344 106.695312 135.273438 107.578125 133.695312 109.152344 L 75.707031 167.167969 C 74.136719 168.738281 73.253906 170.871094 73.253906 173.097656 C 73.253906 175.324219 74.136719 177.453125 75.707031 179.027344 L 133.695312 237.039062 C 135.273438 238.617188 137.402344 239.5 139.628906 239.5 L 143.5 239.5 C 146.886719 239.5 149.945312 237.453125 151.242188 234.320312 Z M 151.242188 234.320312 "/>
<path style="fill:none;stroke-width:3;stroke-linecap:round;stroke-linejoin:round;stroke:rgb(19.999695%,21.179199%,22.749329%);stroke-opacity:1;stroke-miterlimit:10;" d="M 129.879876 65.118777 L 106.580318 41.818477 C 105.9478 41.186238 105.090841 40.831682 104.197783 40.831682 L 85.140644 40.831682 C 83.779868 40.831682 82.550933 41.652181 82.029851 42.910385 C 81.50877 44.170157 81.797562 45.61819 82.759679 46.583022 L 103.678271 67.500265 L 82.759679 88.419077 C 81.795992 89.38234 81.50877 90.828803 82.029851 92.088576 C 82.550933 93.346779 83.779868 94.168847 85.140644 94.168847 L 104.197783 94.168847 C 105.090841 94.168847 105.9478 93.814291 106.580318 93.180483 L 129.879876 69.881752 C 130.510823 69.249513 130.865536 68.394499 130.865536 67.500265 C 130.865536 66.60603 130.509254 65.749448 129.879876 65.118777 Z M 129.879876 65.118777 " transform="matrix(2.488815,0,0,2.489909,19.397589,5.028142)"/>
<path style="fill:none;stroke-width:3;stroke-linecap:round;stroke-linejoin:round;stroke:rgb(19.999695%,21.179199%,22.749329%);stroke-opacity:1;stroke-miterlimit:10;" d="M 108.669352 62.500396 L 87.75076 83.419208 " transform="matrix(2.488815,0,0,2.489909,19.397589,5.028142)"/>
<g clip-path="url(#clip1)" clip-rule="nonzero">
<path style="fill:none;stroke-width:3;stroke-linecap:round;stroke-linejoin:round;stroke:rgb(19.999695%,21.179199%,22.749329%);stroke-opacity:1;stroke-miterlimit:10;" d="M 52.974856 42.910385 C 52.453774 41.652181 51.224838 40.831682 49.864062 40.831682 L 30.808493 40.831682 C 29.913865 40.831682 29.058476 41.186238 28.424389 41.818477 L 5.124831 65.118777 C 4.493883 65.749448 4.139171 66.60603 4.139171 67.500265 C 4.139171 68.394499 4.493883 69.249513 5.124831 69.881752 L 28.424389 93.180483 C 29.058476 93.814291 29.913865 94.168847 30.808493 94.168847 L 49.864062 94.168847 C 51.224838 94.168847 52.453774 93.346779 52.974856 92.088576 C 53.495937 90.828803 53.208714 89.38234 52.246597 88.419077 L 31.328005 67.500265 L 52.246597 46.583022 C 53.208714 45.61819 53.497506 44.170157 52.974856 42.910385 Z M 52.974856 42.910385 " transform="matrix(2.488815,0,0,2.489909,19.397589,5.028142)"/>
</g>
<path style="fill:none;stroke-width:3;stroke-linecap:round;stroke-linejoin:round;stroke:rgb(19.999695%,21.179199%,22.749329%);stroke-opacity:1;stroke-miterlimit:10;" d="M 26.327507 72.500134 L 47.246099 51.582891 " transform="matrix(2.488815,0,0,2.489909,19.397589,5.028142)"/>
<path style="fill:none;stroke-width:3;stroke-linecap:round;stroke-linejoin:round;stroke:rgb(19.999695%,21.179199%,22.749329%);stroke-opacity:1;stroke-miterlimit:10;" d="M 57.041488 77.959671 L 77.95851 57.040859 " transform="matrix(2.488815,0,0,2.489909,19.397589,5.028142)"/>
<path style="fill:none;stroke-width:3;stroke-linecap:round;stroke-linejoin:round;stroke:rgb(19.999695%,21.179199%,22.749329%);stroke-opacity:1;stroke-miterlimit:10;" d="M 101.399325 33.600933 L 103.789707 31.211601 " transform="matrix(2.488815,0,0,2.489909,19.397589,5.028142)"/>
<path style="fill:none;stroke-width:3;stroke-linecap:round;stroke-linejoin:round;stroke:rgb(19.999695%,21.179199%,22.749329%);stroke-opacity:1;stroke-miterlimit:10;" d="M 108.190648 26.812595 L 108.438632 26.561582 " transform="matrix(2.488815,0,0,2.489909,19.397589,5.028142)"/>
<path style="fill:none;stroke-width:3;stroke-linecap:round;stroke-linejoin:round;stroke:rgb(19.999695%,21.179199%,22.749329%);stroke-opacity:1;stroke-miterlimit:10;" d="M 111.679696 23.320374 L 111.92768 23.07093 " transform="matrix(2.488815,0,0,2.489909,19.397589,5.028142)"/>
<path style="fill:none;stroke-width:3;stroke-linecap:round;stroke-linejoin:round;stroke:rgb(19.999695%,21.179199%,22.749329%);stroke-opacity:1;stroke-miterlimit:10;" d="M 115.170313 19.832859 L 115.418298 19.583415 " transform="matrix(2.488815,0,0,2.489909,19.397589,5.028142)"/>
<path style="fill:none;stroke-width:3;stroke-linecap:round;stroke-linejoin:round;stroke:rgb(19.999695%,21.179199%,22.749329%);stroke-opacity:1;stroke-miterlimit:10;" d="M 33.599104 101.399596 L 31.210291 103.788928 " transform="matrix(2.488815,0,0,2.489909,19.397589,5.028142)"/>
<path style="fill:none;stroke-width:3;stroke-linecap:round;stroke-linejoin:round;stroke:rgb(19.999695%,21.179199%,22.749329%);stroke-opacity:1;stroke-miterlimit:10;" d="M 26.80935 108.189503 L 26.561366 108.440516 " transform="matrix(2.488815,0,0,2.489909,19.397589,5.028142)"/>
<path style="fill:none;stroke-width:3;stroke-linecap:round;stroke-linejoin:round;stroke:rgb(19.999695%,21.179199%,22.749329%);stroke-opacity:1;stroke-miterlimit:10;" d="M 23.320302 111.680155 L 23.072318 111.9296 " transform="matrix(2.488815,0,0,2.489909,19.397589,5.028142)"/>
<g clip-path="url(#clip2)" clip-rule="nonzero">
<path style="fill:none;stroke-width:3;stroke-linecap:round;stroke-linejoin:round;stroke:rgb(19.999695%,21.179199%,22.749329%);stroke-opacity:1;stroke-miterlimit:10;" d="M 19.831254 115.169239 L 19.58327 115.420252 " transform="matrix(2.488815,0,0,2.489909,19.397589,5.028142)"/>
</g>
</g>
</svg>
