<?xml version="1.0" encoding="UTF-8"?>
<svg xmlns="http://www.w3.org/2000/svg" xmlns:xlink="http://www.w3.org/1999/xlink" width="48pt" height="48pt" viewBox="0 0 48 48" version="1.2">
<defs>
<clipPath id="clip1">
  <path d="M 0.488281 0 L 47.464844 0 L 47.464844 47 L 0.488281 47 Z M 0.488281 0 "/>
</clipPath>
<clipPath id="clip2">
  <path d="M 27 12 L 44.066406 12 L 44.066406 31 L 27 31 Z M 27 12 "/>
</clipPath>
<clipPath id="clip3">
  <path d="M 3.65625 12 L 20 12 L 20 31 L 3.65625 31 Z M 3.65625 12 "/>
</clipPath>
<clipPath id="clip4">
  <path d="M 38 6.21875 L 40 6.21875 L 40 8 L 38 8 Z M 38 6.21875 "/>
</clipPath>
<clipPath id="clip5">
  <path d="M 8 36 L 10 36 L 10 37.074219 L 8 37.074219 Z M 8 36 "/>
</clipPath>
</defs>
<g id="surface1">
<g clip-path="url(#clip1)" clip-rule="nonzero">
<path style=" stroke:none;fill-rule:nonzero;fill:rgb(6.669617%,66.668701%,65.098572%);fill-opacity:1;" d="M 6.445312 7.816406 C 6.511719 7.746094 6.570312 7.675781 6.636719 7.609375 C 6.894531 7.386719 7.0625 7.132812 7.324219 6.929688 C 6.945312 13.90625 11.265625 22.554688 18.800781 28.949219 C 21.523438 31.425781 24.585938 33.375 27.980469 34.792969 C 31.378906 36.210938 34.914062 37.019531 38.589844 37.21875 C 40.0625 37.21875 41.507812 37.035156 42.933594 36.671875 C 41.167969 38.351562 39.152344 39.628906 36.878906 40.503906 C 34.605469 41.378906 32.253906 41.785156 29.820312 41.726562 C 26.785156 41.683594 23.855469 41.121094 21.023438 40.035156 C 18.191406 38.949219 15.632812 37.40625 13.351562 35.410156 C 4.695312 28.027344 1.742188 16.226562 6.445312 7.816406 Z M 25.675781 0.175781 C 25.925781 0.199219 26.183594 0.207031 26.414062 0.234375 C 27.90625 0.386719 29.367188 0.691406 30.796875 1.136719 C 32.601562 1.703125 34.3125 2.46875 35.929688 3.445312 C 37.546875 4.421875 39.027344 5.578125 40.367188 6.910156 C 41.707031 8.242188 42.867188 9.714844 43.851562 11.328125 C 44.835938 12.945312 45.613281 14.652344 46.183594 16.453125 C 46.199219 16.503906 46.21875 16.554688 46.234375 16.609375 C 46.484375 17.3125 46.679688 18.027344 46.820312 18.757812 L 46.820312 18.878906 C 42.695312 16.164062 38.765625 13.191406 35.03125 9.960938 C 31.355469 6.886719 27.878906 3.605469 24.59375 0.121094 C 24.988281 0.121094 25.386719 0.144531 25.675781 0.175781 Z M 9.878906 4.710938 C 9.878906 4.679688 9.878906 4.640625 9.929688 4.640625 C 9.964844 4.628906 9.996094 4.609375 10.023438 4.585938 C 10.179688 4.472656 10.335938 4.371094 10.5 4.261719 C 10.921875 3.949219 11.457031 3.648438 11.910156 3.320312 C 12.089844 3.214844 12.265625 3.164062 12.449219 3.066406 C 12.863281 2.8125 13.292969 2.597656 13.738281 2.410156 C 15.527344 7.539062 20.457031 13.894531 26.9375 19.425781 C 33.710938 25.175781 40.988281 29.015625 46.394531 29.820312 C 46.316406 30.035156 46.25 30.296875 46.15625 30.519531 C 45.992188 30.996094 45.839844 31.4375 45.714844 31.890625 C 45.507812 32.367188 45.308594 32.863281 45.058594 33.339844 C 45.03125 33.394531 44.996094 33.453125 44.964844 33.511719 C 42.976562 34.597656 40.847656 35.109375 38.582031 35.046875 C 35.175781 34.84375 31.898438 34.078125 28.75 32.757812 C 25.601562 31.433594 22.761719 29.628906 20.230469 27.339844 C 12.246094 20.570312 8 11.335938 9.878906 4.714844 Z M 47.289062 23.550781 C 47.277344 24.476562 47.207031 25.394531 47.074219 26.308594 C 47.046875 26.519531 47.015625 26.675781 46.984375 26.886719 C 46.957031 27.035156 46.917969 27.234375 46.886719 27.433594 C 46.855469 27.53125 46.832031 27.632812 46.820312 27.734375 C 41.960938 27.0625 34.800781 23.265625 28.355469 17.78125 C 22.027344 12.417969 17.285156 6.324219 15.707031 1.59375 C 15.972656 1.441406 16.257812 1.328125 16.554688 1.253906 C 16.640625 1.253906 16.703125 1.222656 16.703125 1.199219 C 17.351562 0.972656 18.011719 0.792969 18.683594 0.660156 L 18.988281 0.585938 L 19.203125 0.546875 C 19.800781 0.402344 20.410156 0.3125 21.023438 0.273438 L 21.136719 0.257812 C 21.296875 0.242188 21.464844 0.214844 21.554688 0.199219 C 21.613281 0.199219 21.703125 0.199219 21.796875 0.183594 C 25.46875 4.25 29.398438 8.046875 33.589844 11.574219 C 37.863281 15.285156 42.394531 18.652344 47.179688 21.675781 C 47.238281 22.261719 47.289062 22.90625 47.289062 23.558594 Z M 7.207031 40.136719 C 6.117188 39.046875 5.144531 37.863281 4.289062 36.582031 C 3.433594 35.300781 2.710938 33.949219 2.121094 32.527344 C 1.53125 31.105469 1.085938 29.636719 0.785156 28.125 C 0.480469 26.617188 0.328125 25.089844 0.328125 23.550781 C 0.359375 20.46875 0.957031 17.5 2.117188 14.644531 C 1.980469 16.769531 2.101562 18.878906 2.472656 20.972656 C 2.839844 23.070312 3.453125 25.09375 4.308594 27.042969 C 5.160156 28.992188 6.234375 30.816406 7.523438 32.507812 C 8.8125 34.203125 10.28125 35.722656 11.933594 37.066406 C 14.421875 39.222656 17.203125 40.890625 20.277344 42.066406 C 23.355469 43.238281 26.539062 43.851562 29.835938 43.898438 C 32.5 43.902344 35.082031 43.445312 37.585938 42.527344 C 35.585938 43.980469 33.40625 45.085938 31.054688 45.847656 C 28.703125 46.609375 26.292969 46.984375 23.820312 46.976562 C 22.277344 46.976562 20.753906 46.824219 19.242188 46.527344 C 17.730469 46.226562 16.261719 45.785156 14.835938 45.199219 C 13.414062 44.609375 12.058594 43.890625 10.773438 43.039062 C 9.492188 42.1875 8.300781 41.222656 7.207031 40.136719 Z M 7.207031 40.136719 "/>
</g>
<path style=" stroke:none;fill-rule:nonzero;fill:rgb(100%,35.688782%,0%);fill-opacity:1;" d="M 42.84375 20.921875 L 35.613281 13.667969 C 35.417969 13.46875 35.152344 13.359375 34.875 13.359375 L 28.960938 13.359375 C 28.539062 13.359375 28.15625 13.613281 27.996094 14.007812 C 27.832031 14.398438 27.921875 14.847656 28.222656 15.148438 L 34.714844 21.664062 L 28.222656 28.175781 C 27.921875 28.476562 27.832031 28.925781 27.996094 29.320312 C 28.15625 29.710938 28.539062 29.96875 28.960938 29.96875 L 34.875 29.96875 C 35.152344 29.96875 35.417969 29.855469 35.613281 29.660156 L 42.84375 22.40625 C 43.039062 22.207031 43.148438 21.941406 43.148438 21.664062 C 43.148438 21.382812 43.039062 21.117188 42.84375 20.921875 Z M 42.84375 20.921875 "/>
<path style=" stroke:none;fill-rule:nonzero;fill:rgb(100%,59.21936%,0%);fill-opacity:1;" d="M 37.414062 22.40625 C 37.609375 22.207031 37.71875 21.941406 37.71875 21.664062 C 37.71875 21.382812 37.609375 21.117188 37.414062 20.921875 L 30.183594 13.667969 C 29.988281 13.46875 29.722656 13.359375 29.445312 13.359375 L 28.960938 13.359375 C 28.539062 13.359375 28.15625 13.613281 27.996094 14.007812 C 27.832031 14.398438 27.921875 14.847656 28.222656 15.148438 L 34.714844 21.664062 L 28.222656 28.175781 C 27.921875 28.476562 27.832031 28.925781 27.996094 29.320312 C 28.15625 29.710938 28.539062 29.96875 28.960938 29.96875 L 29.445312 29.96875 C 29.722656 29.96875 29.988281 29.855469 30.183594 29.660156 Z M 37.414062 22.40625 "/>
<path style=" stroke:none;fill-rule:nonzero;fill:rgb(100%,35.688782%,0%);fill-opacity:1;" d="M 19.371094 14.007812 C 19.207031 13.613281 18.828125 13.359375 18.40625 13.359375 L 12.492188 13.359375 C 12.214844 13.359375 11.949219 13.46875 11.753906 13.667969 L 4.523438 20.921875 C 4.328125 21.117188 4.214844 21.382812 4.214844 21.664062 C 4.214844 21.941406 4.328125 22.207031 4.523438 22.40625 L 11.753906 29.660156 C 11.949219 29.855469 12.214844 29.96875 12.492188 29.96875 L 18.40625 29.96875 C 18.828125 29.96875 19.207031 29.710938 19.371094 29.320312 C 19.53125 28.925781 19.441406 28.476562 19.144531 28.175781 L 12.652344 21.664062 L 19.144531 15.148438 C 19.441406 14.847656 19.53125 14.398438 19.371094 14.007812 Z M 19.371094 14.007812 "/>
<path style=" stroke:none;fill-rule:nonzero;fill:rgb(100%,59.21936%,0%);fill-opacity:1;" d="M 19.371094 29.320312 C 19.53125 28.925781 19.441406 28.476562 19.144531 28.175781 L 12.652344 21.664062 L 19.144531 15.148438 C 19.441406 14.847656 19.53125 14.398438 19.371094 14.007812 C 19.207031 13.613281 18.828125 13.359375 18.40625 13.359375 L 17.921875 13.359375 C 17.644531 13.359375 17.378906 13.46875 17.183594 13.667969 L 9.953125 20.921875 C 9.757812 21.117188 9.648438 21.382812 9.648438 21.664062 C 9.648438 21.941406 9.757812 22.207031 9.953125 22.40625 L 17.183594 29.660156 C 17.378906 29.855469 17.644531 29.96875 17.921875 29.96875 L 18.40625 29.96875 C 18.828125 29.96875 19.207031 29.710938 19.371094 29.320312 Z M 19.371094 29.320312 "/>
<g clip-path="url(#clip2)" clip-rule="nonzero">
<path style="fill:none;stroke-width:3;stroke-linecap:round;stroke-linejoin:round;stroke:rgb(19.999695%,21.179199%,22.749329%);stroke-opacity:1;stroke-miterlimit:10;" d="M 129.87832 65.119623 L 106.577587 41.823165 C 105.948178 41.183359 105.092181 40.832093 104.19842 40.832093 L 85.139906 40.832093 C 83.780382 40.832093 82.54674 41.647532 82.030624 42.914598 C 81.514508 44.169119 81.791448 45.611819 82.760739 46.5778 L 103.682304 67.503214 L 82.760739 88.416082 C 81.791448 89.382063 81.50192 90.824763 82.030624 92.091829 C 82.54674 93.34635 83.780382 94.174334 85.139906 94.174334 L 104.19842 94.174334 C 105.092181 94.174334 105.948178 93.810523 106.577587 93.183263 L 129.87832 69.886804 C 130.507729 69.246998 130.860198 68.393924 130.860198 67.503214 C 130.860198 66.599958 130.507729 65.746884 129.87832 65.119623 Z M 129.87832 65.119623 " transform="matrix(0.310311,0,0,0.311374,2.931731,0.645332)"/>
</g>
<path style="fill:none;stroke-width:3;stroke-linecap:round;stroke-linejoin:round;stroke:rgb(19.999695%,21.179199%,22.749329%);stroke-opacity:1;stroke-miterlimit:10;" d="M 108.667226 62.497674 L 87.74566 83.423088 " transform="matrix(0.310311,0,0,0.311374,2.931731,0.645332)"/>
<g clip-path="url(#clip3)" clip-rule="nonzero">
<path style="fill:none;stroke-width:3;stroke-linecap:round;stroke-linejoin:round;stroke:rgb(19.999695%,21.179199%,22.749329%);stroke-opacity:1;stroke-miterlimit:10;" d="M 52.97709 42.914598 C 52.448386 41.647532 51.227332 40.832093 49.867808 40.832093 L 30.809294 40.832093 C 29.915533 40.832093 29.059536 41.183359 28.430127 41.823165 L 5.129394 65.119623 C 4.499985 65.746884 4.134928 66.599958 4.134928 67.503214 C 4.134928 68.393924 4.499985 69.246998 5.129394 69.886804 L 28.430127 93.183263 C 29.059536 93.810523 29.915533 94.174334 30.809294 94.174334 L 49.867808 94.174334 C 51.227332 94.174334 52.448386 93.34635 52.97709 92.091829 C 53.493206 90.824763 53.203678 89.382063 52.246975 88.416082 L 31.32541 67.503214 L 52.246975 46.5778 C 53.203678 45.611819 53.493206 44.169119 52.97709 42.914598 Z M 52.97709 42.914598 " transform="matrix(0.310311,0,0,0.311374,2.931731,0.645332)"/>
</g>
<path style="fill:none;stroke-width:3;stroke-linecap:round;stroke-linejoin:round;stroke:rgb(19.999695%,21.179199%,22.749329%);stroke-opacity:1;stroke-miterlimit:10;" d="M 26.3279 72.496208 L 47.249465 51.58334 " transform="matrix(0.310311,0,0,0.311374,2.931731,0.645332)"/>
<path style="fill:none;stroke-width:3;stroke-linecap:round;stroke-linejoin:round;stroke:rgb(19.999695%,21.179199%,22.749329%);stroke-opacity:1;stroke-miterlimit:10;" d="M 57.043074 77.953375 L 77.952052 57.040507 " transform="matrix(0.310311,0,0,0.311374,2.931731,0.645332)"/>
<path style="fill:none;stroke-width:3;stroke-linecap:round;stroke-linejoin:round;stroke:rgb(19.999695%,21.179199%,22.749329%);stroke-opacity:1;stroke-miterlimit:10;" d="M 101.403842 33.606051 L 103.78301 31.209915 " transform="matrix(0.310311,0,0,0.311374,2.931731,0.645332)"/>
<path style="fill:none;stroke-width:3;stroke-linecap:round;stroke-linejoin:round;stroke:rgb(19.999695%,21.179199%,22.749329%);stroke-opacity:1;stroke-miterlimit:10;" d="M 108.188875 26.806546 L 108.440638 26.568187 " transform="matrix(0.310311,0,0,0.311374,2.931731,0.645332)"/>
<path style="fill:none;stroke-width:3;stroke-linecap:round;stroke-linejoin:round;stroke:rgb(19.999695%,21.179199%,22.749329%);stroke-opacity:1;stroke-miterlimit:10;" d="M 111.675802 23.318977 L 111.927566 23.068073 " transform="matrix(0.310311,0,0,0.311374,2.931731,0.645332)"/>
<g clip-path="url(#clip4)" clip-rule="nonzero">
<path style="fill:none;stroke-width:3;stroke-linecap:round;stroke-linejoin:round;stroke:rgb(19.999695%,21.179199%,22.749329%);stroke-opacity:1;stroke-miterlimit:10;" d="M 115.175318 19.831408 L 115.414494 19.580504 " transform="matrix(0.310311,0,0,0.311374,2.931731,0.645332)"/>
</g>
<path style="fill:none;stroke-width:3;stroke-linecap:round;stroke-linejoin:round;stroke:rgb(19.999695%,21.179199%,22.749329%);stroke-opacity:1;stroke-miterlimit:10;" d="M 33.603872 101.400377 L 31.212116 103.783967 " transform="matrix(0.310311,0,0,0.311374,2.931731,0.645332)"/>
<path style="fill:none;stroke-width:3;stroke-linecap:round;stroke-linejoin:round;stroke:rgb(19.999695%,21.179199%,22.749329%);stroke-opacity:1;stroke-miterlimit:10;" d="M 26.806251 108.187336 L 26.567076 108.438241 " transform="matrix(0.310311,0,0,0.311374,2.931731,0.645332)"/>
<path style="fill:none;stroke-width:3;stroke-linecap:round;stroke-linejoin:round;stroke:rgb(19.999695%,21.179199%,22.749329%);stroke-opacity:1;stroke-miterlimit:10;" d="M 23.319324 111.674905 L 23.06756 111.925809 " transform="matrix(0.310311,0,0,0.311374,2.931731,0.645332)"/>
<g clip-path="url(#clip5)" clip-rule="nonzero">
<path style="fill:none;stroke-width:3;stroke-linecap:round;stroke-linejoin:round;stroke:rgb(19.999695%,21.179199%,22.749329%);stroke-opacity:1;stroke-miterlimit:10;" d="M 19.832396 115.175019 L 19.580632 115.425924 " transform="matrix(0.310311,0,0,0.311374,2.931731,0.645332)"/>
</g>
</g>
</svg>
