<?xml version="1.0" standalone="no"?>
<!DOCTYPE svg PUBLIC "-//W3C//DTD SVG 20010904//EN"
 "http://www.w3.org/TR/2001/REC-SVG-20010904/DTD/svg10.dtd">
<svg version="1.0" xmlns="http://www.w3.org/2000/svg"
 width="500.000000pt" height="500.000000pt" viewBox="0 0 500.000000 500.000000"
 preserveAspectRatio="xMidYMid meet">

<g transform="translate(0.000000,500.000000) scale(0.100000,-0.100000)"
fill="#000000" stroke="none">
<path d="M2500 3252 c0 -115 2 -130 20 -150 28 -29 36 -28 16 3 -12 19 -16 51
-16 144 0 69 -4 122 -10 126 -6 4 -10 -39 -10 -123z"/>
<path d="M2760 3266 c0 -118 -9 -162 -37 -183 -9 -7 -12 -13 -7 -13 6 0 20 10
31 23 18 19 21 40 26 149 3 75 2 130 -4 133 -5 4 -9 -40 -9 -109z"/>
<path d="M2598 3063 c12 -2 30 -2 40 0 9 3 -1 5 -23 4 -22 0 -30 -2 -17 -4z"/>
<path d="M2597 2983 c-9 -16 -2 -76 9 -80 7 -2 11 10 10 34 -1 26 3 37 12 36
6 -2 12 2 12 7 0 12 -37 14 -43 3z"/>
<path d="M2536 2943 c7 -40 11 -49 19 -42 8 8 -7 79 -17 79 -5 0 -6 -17 -2
-37z"/>
<path d="M2682 2958 c-7 -7 -12 -18 -12 -25 0 -7 -4 -13 -10 -13 -5 0 -10 -4
-10 -10 0 -21 20 -9 26 15 3 14 10 25 16 25 5 0 6 -4 3 -10 -8 -13 13 -52 25
-45 9 5 -9 75 -20 75 -3 0 -11 -5 -18 -12z"/>
<path d="M2478 2949 c16 -6 22 -15 20 -31 -5 -34 -27 -33 -39 1 -6 17 -15 31
-21 31 -6 0 -7 -7 -4 -16 3 -9 9 -27 12 -40 7 -28 5 -27 37 -15 48 19 43 82
-7 80 -20 0 -20 -1 2 -10z"/>
<path d="M2793 2919 c-10 -26 -9 -33 7 -49 11 -11 26 -17 33 -14 14 5 37 46
37 64 0 21 -16 8 -27 -21 -7 -18 -17 -29 -25 -26 -14 5 -15 19 -4 55 11 34 -8
26 -21 -9z"/>
<path d="M2377 2926 c-17 -13 -17 -15 0 -47 10 -19 19 -35 20 -37 3 -8 43 20
43 30 0 7 -4 7 -14 -1 -11 -9 -17 -6 -31 15 -16 24 -16 26 2 40 10 7 14 13 8
13 -5 0 -18 -6 -28 -13z"/>
<path d="M2400 2900 c0 -5 5 -10 10 -10 6 0 10 5 10 10 0 6 -4 10 -10 10 -5 0
-10 -4 -10 -10z"/>
<path d="M2890 2877 c-7 -18 -16 -36 -18 -42 -3 -5 4 1 15 14 l20 24 7 -33 6
-33 25 23 c13 13 22 28 18 33 -3 6 -10 0 -15 -12 -10 -29 -28 -18 -28 19 0 41
-14 44 -30 7z"/>
<path d="M2325 2891 c-3 -5 -1 -12 5 -16 5 -3 10 1 10 9 0 18 -6 21 -15 7z"/>
<path d="M2575 2869 c-172 -18 -316 -143 -361 -314 -55 -203 43 -411 236 -504
71 -34 81 -36 176 -36 100 0 103 1 187 44 58 29 97 56 119 84 18 22 38 45 44
52 62 62 91 237 60 366 -23 95 -119 220 -202 262 -82 41 -165 56 -259 46z m65
-34 c-17 -20 -87 -38 -124 -31 -21 5 -35 1 -50 -13 -21 -18 -90 -35 -80 -19
10 15 105 59 148 68 22 4 58 8 80 9 33 1 37 -1 26 -14z m171 -32 c102 -55 185
-169 210 -291 10 -50 11 -76 1 -134 -57 -329 -435 -462 -670 -234 -63 61 -87
97 -107 162 -39 129 -26 246 40 353 28 46 66 91 78 91 1 0 2 -19 3 -42 0 -41
16 -95 36 -128 5 -8 14 -27 21 -43 6 -15 16 -26 22 -23 7 2 17 -5 23 -15 10
-16 15 -17 32 -7 15 10 17 14 6 18 -10 4 -11 11 -5 29 8 19 12 21 24 11 9 -7
20 -33 27 -57 6 -27 23 -56 42 -73 24 -23 28 -32 18 -42 -20 -20 -13 -30 10
-14 32 23 58 20 88 -9 24 -23 28 -24 40 -10 34 41 40 -6 10 -74 -11 -24 -18
-46 -15 -49 8 -8 12 -1 42 78 23 59 35 77 60 89 43 22 54 42 43 81 -6 22 -5
38 3 50 9 15 8 27 -1 53 -7 18 -12 46 -12 61 0 41 -61 122 -140 187 l-25 20
25 -7 c14 -3 46 -17 71 -31z"/>
<path d="M2430 2429 c0 -5 5 -7 10 -4 6 3 10 8 10 11 0 2 -4 4 -10 4 -5 0 -10
-5 -10 -11z"/>
<path d="M2440 2393 c0 -5 7 -16 14 -26 13 -17 14 -16 19 2 3 12 -1 22 -10 25
-19 8 -23 7 -23 -1z"/>
<path d="M2557 2329 c-10 -6 -31 -11 -48 -11 -18 -1 -25 -4 -18 -9 6 -4 9 -16
6 -28 -4 -18 -2 -19 14 -10 10 5 19 16 19 24 0 8 6 15 14 15 9 0 12 -7 9 -20
-3 -12 0 -20 7 -20 9 0 11 -11 7 -35 -3 -19 -2 -37 3 -40 5 -3 12 17 16 45 5
37 10 50 20 46 8 -3 14 -1 14 3 0 5 -7 11 -15 15 -8 3 -15 12 -15 21 0 17 -8
18 -33 4z"/>
<path d="M2716 2163 c-11 -25 -28 -55 -39 -66 -12 -12 -16 -22 -9 -29 10 -10
42 26 42 49 0 7 4 13 9 13 5 0 12 11 15 24 3 13 9 31 12 40 3 9 2 16 -2 16 -5
0 -18 -21 -28 -47z"/>
<path d="M2567 2174 c-10 -16 2 -71 19 -85 7 -6 10 -17 7 -25 -3 -8 0 -14 7
-14 6 0 8 5 5 10 -9 15 12 12 28 -5 8 -8 17 -11 21 -8 3 3 -10 17 -28 30 -27
17 -37 33 -43 65 -5 24 -12 38 -16 32z"/>
<path d="M2285 2860 c-8 -13 -9 -12 28 -28 39 -17 46 -15 40 9 -4 15 -8 17
-14 8 -6 -10 -12 -9 -27 5 -14 12 -22 14 -27 6z"/>
<path d="M2250 2831 c0 -21 48 -73 56 -60 3 6 -8 25 -25 42 -17 18 -31 26 -31
18z"/>
<path d="M2965 2810 c-18 -18 -25 -34 -19 -39 5 -5 21 5 37 25 35 41 20 53
-18 14z"/>
<path d="M2210 2791 c0 -5 10 -11 23 -15 18 -5 20 -8 7 -16 -8 -5 -25 -10 -37
-10 -13 0 -23 -4 -23 -10 0 -5 5 -10 11 -10 7 0 20 -10 30 -22 11 -11 22 -18
26 -14 5 4 0 12 -10 17 -27 16 -20 29 15 29 l32 0 -29 30 c-29 30 -45 38 -45
21z"/>
<path d="M3005 2771 c-20 -39 -20 -40 13 -37 15 2 33 4 40 5 7 0 10 6 7 11 -5
8 -11 7 -21 -1 -20 -16 -31 -2 -16 21 7 11 8 21 2 25 -5 3 -16 -8 -25 -24z"/>
<path d="M3048 2702 c-16 -10 -28 -23 -28 -31 0 -11 3 -11 17 0 13 11 17 11
20 2 3 -7 9 -13 14 -13 4 0 6 7 3 15 -4 8 -1 15 5 15 6 0 11 -4 11 -10 0 -5 4
-10 10 -10 12 0 -3 43 -16 46 -5 1 -21 -5 -36 -14z"/>
<path d="M2126 2634 c-9 -23 -8 -24 24 -35 27 -10 36 -36 18 -54 -10 -10 -59
15 -52 27 4 7 3 8 -4 4 -19 -11 -14 -46 6 -46 9 0 26 -3 38 -6 18 -5 23 0 31
35 9 34 8 41 -6 46 -13 5 -10 10 14 21 l30 14 -28 -4 c-15 -2 -30 1 -33 5 -9
14 -31 10 -38 -7z"/>
<path d="M3037 2630 c4 -15 11 -19 24 -15 21 7 25 -5 8 -22 -13 -13 -3 -69 13
-79 6 -4 19 3 29 14 21 27 26 27 32 5 3 -13 5 -14 6 -3 0 8 -4 22 -9 30 -9 13
-13 12 -29 -7 -23 -28 -27 -28 -34 -4 -6 24 3 38 28 42 22 5 30 27 17 47 -7
11 -14 11 -37 0 -22 -10 -29 -10 -33 0 -7 21 -20 13 -15 -8z m78 -10 c-3 -5
-11 -10 -16 -10 -6 0 -7 5 -4 10 3 6 11 10 16 10 6 0 7 -4 4 -10z"/>
<path d="M1840 2580 c0 -5 5 -10 11 -10 5 0 7 5 4 10 -3 6 -8 10 -11 10 -2 0
-4 -4 -4 -10z"/>
<path d="M1745 2555 l-30 -13 48 -1 c26 -1 62 -8 78 -17 42 -21 46 -12 9 20
-35 29 -60 32 -105 11z"/>
<path d="M3414 2551 c-29 -17 -52 -41 -41 -41 3 0 22 7 43 16 24 10 54 14 81
11 52 -6 54 -1 8 19 -45 18 -54 18 -91 -5z"/>
<path d="M1966 2537 c3 -10 9 -15 12 -12 3 3 0 11 -7 18 -10 9 -11 8 -5 -6z"/>
<path d="M1655 2510 c-3 -5 -1 -10 4 -10 6 0 11 5 11 10 0 6 -2 10 -4 10 -3 0
-8 -4 -11 -10z"/>
<path d="M2097 2513 c-4 -3 -7 -22 -7 -42 0 -32 1 -33 13 -16 10 13 21 16 40
11 21 -5 27 -3 27 9 0 9 -5 13 -11 10 -18 -12 -59 4 -53 20 6 16 2 20 -9 8z"/>
<path d="M3108 2502 c-54 -5 -47 -23 7 -20 25 0 45 5 45 9 0 12 -12 15 -52 11z"/>
<path d="M3228 2494 c-4 -6 -7 -40 -7 -75 1 -51 3 -59 11 -39 10 28 7 131 -4
114z"/>
<path d="M3146 2455 c5 -12 -2 -15 -30 -15 -22 0 -36 -5 -36 -13 0 -7 13 -12
33 -12 20 0 31 -5 30 -12 -2 -7 2 -13 7 -13 6 0 10 18 10 40 0 22 -4 40 -10
40 -5 0 -7 -7 -4 -15z"/>
<path d="M1630 2450 c0 -9 29 -15 53 -11 4 1 32 2 61 2 96 3 82 17 -18 18 -60
1 -96 -2 -96 -9z"/>
<path d="M1839 2449 c-6 -3 9 -6 34 -5 25 0 48 4 52 8 9 9 -72 6 -86 -3z"/>
<path d="M3330 2451 c0 -4 28 -9 62 -10 35 -1 60 0 57 3 -9 10 -119 16 -119 7z"/>
<path d="M3495 2450 c-4 -6 18 -10 59 -10 37 0 66 4 66 10 0 6 -26 10 -59 10
-33 0 -63 -4 -66 -10z"/>
<path d="M2130 2415 c-14 -17 -35 -21 -25 -5 3 6 1 10 -4 10 -13 0 -13 -3 -5
-24 8 -20 33 -21 40 -1 4 8 13 15 21 15 8 0 11 5 8 10 -9 14 -21 12 -35 -5z"/>
<path d="M1650 2400 c0 -5 5 -10 11 -10 5 0 7 5 4 10 -3 6 -8 10 -11 10 -2 0
-4 -4 -4 -10z"/>
<path d="M1841 2377 c-23 -14 -50 -20 -85 -19 l-51 1 34 -15 c49 -21 73 -17
111 15 43 35 37 45 -9 18z"/>
<path d="M2163 2385 c5 -10 -4 -16 -28 -21 -19 -3 -35 -11 -35 -16 0 -6 10 -8
23 -4 12 3 30 6 40 6 11 0 17 8 17 25 0 14 -5 25 -11 25 -6 0 -9 -7 -6 -15z"/>
<path d="M3399 2360 c30 -28 39 -32 74 -27 22 3 45 11 51 18 8 9 4 10 -19 6
-16 -3 -46 0 -65 7 -19 8 -44 17 -55 21 -14 5 -9 -3 14 -25z"/>
<path d="M3127 2359 c-9 -6 -27 -9 -39 -7 -12 2 -23 -3 -25 -9 -3 -8 4 -13 18
-13 12 0 32 -8 43 -17 12 -10 15 -11 9 -3 -17 19 -16 30 2 30 8 0 15 7 15 15
0 18 0 17 -23 4z"/>
<path d="M3270 2361 c0 -6 4 -13 10 -16 6 -3 7 1 4 9 -7 18 -14 21 -14 7z"/>
<path d="M2146 2318 c-14 -19 -18 -21 -26 -8 -5 8 -10 11 -10 5 0 -5 5 -17 10
-25 9 -13 13 -12 29 8 23 27 28 27 35 5 3 -11 4 -8 3 6 -3 33 -22 37 -41 9z"/>
<path d="M3070 2270 c0 -5 7 -10 15 -10 8 0 15 5 15 10 0 6 -7 10 -15 10 -8 0
-15 -4 -15 -10z"/>
<path d="M2152 2239 c2 -6 8 -10 13 -10 5 0 11 4 13 10 2 6 -4 11 -13 11 -9 0
-15 -5 -13 -11z"/>
<path d="M3055 2200 c-3 -5 3 -10 15 -10 12 0 18 5 15 10 -3 6 -10 10 -15 10
-5 0 -12 -4 -15 -10z"/>
<path d="M2175 2179 c-4 -6 -5 -13 -2 -16 7 -7 27 6 27 18 0 12 -17 12 -25 -2z"/>
<path d="M3040 2166 c0 -5 -9 -19 -20 -31 -18 -19 -19 -24 -6 -34 13 -11 16
-8 22 13 3 14 9 26 13 26 3 0 11 8 17 18 10 15 8 18 -7 18 -11 0 -19 -5 -19
-10z"/>
<path d="M3150 2159 c-7 -11 -10 -23 -7 -25 2 -2 9 7 15 21 14 30 7 33 -8 4z"/>
<path d="M2197 2154 c-9 -9 25 -64 39 -64 7 0 15 -7 18 -16 3 -8 11 -12 17 -9
7 5 5 13 -7 26 -9 10 -21 16 -27 12 -6 -4 -8 0 -4 10 3 10 2 17 -3 17 -6 0
-10 7 -10 15 0 15 -12 20 -23 9z"/>
<path d="M2980 2096 c0 -2 7 -9 15 -16 9 -7 15 -8 15 -2 0 5 -7 12 -15 16 -8
3 -15 4 -15 2z"/>
<path d="M2946 2068 c-15 -8 -16 -12 -5 -19 12 -8 12 -11 -1 -19 -8 -5 -10
-10 -5 -10 11 1 55 35 55 43 0 11 -28 14 -44 5z"/>
<path d="M2283 2053 c-7 -18 41 -63 69 -63 9 0 19 -6 22 -12 3 -7 4 -4 3 7 -3
29 -42 58 -68 50 -18 -6 -20 -4 -14 14 8 25 -3 29 -12 4z"/>
<path d="M3054 2028 l-19 -23 23 19 c21 18 27 26 19 26 -2 0 -12 -10 -23 -22z"/>
<path d="M2872 2014 c-12 -8 -20 -20 -17 -25 7 -11 26 -12 24 -1 -3 19 2 23
15 13 8 -7 17 -8 20 -3 3 6 0 15 -7 21 -10 8 -19 6 -35 -5z"/>
<path d="M2393 1978 c-1 -10 3 -18 9 -16 18 6 21 25 5 31 -8 3 -13 -3 -14 -15z"/>
<path d="M2975 1954 l-30 -26 33 22 c17 12 32 23 32 26 0 7 -4 5 -35 -22z"/>
<path d="M2487 1952 c4 -19 33 -27 33 -10 0 5 5 6 10 3 6 -4 8 -9 6 -13 -2 -4
9 -8 25 -9 20 -2 27 1 23 9 -5 8 -2 9 9 5 10 -4 24 -10 32 -13 9 -4 15 0 15 9
0 11 -11 16 -37 16 -54 1 -92 6 -100 14 -12 13 -21 7 -16 -11z"/>
<path d="M2760 1953 c-7 -12 -13 -14 -16 -6 -3 6 -17 9 -32 7 -34 -7 -42 -14
-14 -14 12 0 22 -4 22 -10 0 -5 20 -2 45 8 47 17 59 32 25 32 -10 0 -24 -8
-30 -17z"/>
<path d="M2650 1924 c0 -8 5 -12 10 -9 6 3 10 10 10 16 0 5 -4 9 -10 9 -5 0
-10 -7 -10 -16z"/>
<path d="M2880 1900 c-8 -5 -10 -10 -5 -10 6 0 17 5 25 10 8 5 11 10 5 10 -5
0 -17 -5 -25 -10z"/>
<path d="M2568 1839 c10 -10 122 -17 122 -8 0 4 10 9 23 11 12 2 -17 3 -65 3
-48 0 -84 -3 -80 -6z"/>
<path d="M2585 1790 c-4 -11 -11 -18 -16 -15 -5 4 -9 1 -9 -4 0 -6 6 -11 14
-11 8 0 16 -5 18 -11 2 -7 4 4 4 25 0 41 -2 44 -11 16z"/>
<path d="M2650 1800 c0 -5 5 -10 10 -10 6 0 10 5 10 10 0 6 -4 10 -10 10 -5 0
-10 -4 -10 -10z"/>
<path d="M2621 1663 c1 -90 5 -87 12 10 3 37 1 67 -4 67 -5 0 -9 -35 -8 -77z"/>
<path d="M2539 1664 c-27 -29 -34 -103 -11 -126 10 -10 12 -4 11 33 -1 26 5
60 14 79 22 42 17 47 -14 14z"/>
<path d="M2690 1687 c0 -4 7 -25 16 -47 11 -26 15 -56 11 -82 -7 -50 11 -38
23 16 7 30 4 42 -17 74 -30 44 -33 47 -33 39z"/>
<path d="M2490 1659 c0 -5 5 -7 10 -4 6 3 10 8 10 11 0 2 -4 4 -10 4 -5 0 -10
-5 -10 -11z"/>
<path d="M2621 1513 c-1 -43 3 -73 9 -73 12 0 12 97 0 125 -6 14 -9 -3 -9 -52z"/>
</g>
</svg>
